<?xml version="1.0" standalone="no"?>
<!DOCTYPE svg PUBLIC "-//W3C//DTD SVG 20010904//EN"
 "http://www.w3.org/TR/2001/REC-SVG-20010904/DTD/svg10.dtd">
<svg version="1.0" xmlns="http://www.w3.org/2000/svg"
 width="512.000000pt" height="512.000000pt" viewBox="0 0 512.000000 512.000000"
 preserveAspectRatio="xMidYMid meet">
<metadata>
Created by potrace 1.14, written by Peter Selinger 2001-2017
</metadata>
<g transform="translate(0.000000,512.000000) scale(0.100000,-0.100000)"
fill="#000000" stroke="none">
<path d="M2340 4350 c-30 -11 -77 -34 -103 -50 -46 -29 -53 -30 -161 -30 -86
0 -126 -5 -170 -20 -82 -28 -163 -73 -236 -133 -92 -74 -91 -73 -173 -175 -74
-92 -160 -245 -210 -372 -42 -108 -106 -329 -122 -425 -9 -49 -20 -112 -26
-140 -30 -151 -17 -541 32 -955 29 -241 14 -437 -55 -718 -31 -129 -33 -146
-21 -175 8 -20 11 -51 8 -84 -6 -50 -5 -52 28 -72 19 -11 48 -29 64 -41 111
-78 360 -211 420 -226 17 -4 42 -15 57 -25 14 -11 39 -19 54 -19 27 0 48 -6
260 -70 68 -20 123 -30 167 -30 35 0 84 -7 107 -15 54 -19 100 -20 100 -1 0 8
-53 60 -117 116 -123 106 -196 185 -190 204 7 20 39 18 59 -4 11 -11 25 -19
31 -17 21 6 50 135 64 285 3 30 11 56 17 58 7 3 30 -3 52 -12 21 -10 87 -25
147 -34 99 -15 115 -15 215 0 59 9 126 25 150 35 28 11 47 14 53 8 5 -5 14
-45 20 -89 27 -219 32 -239 58 -242 15 -3 30 3 38 14 10 14 16 15 25 6 10 -10
8 -20 -7 -48 -23 -44 -191 -206 -245 -236 -53 -30 -54 -58 -2 -58 20 1 48 7
62 15 15 8 54 15 95 15 79 1 86 2 285 64 80 25 153 45 162 43 9 -1 40 10 70
24 29 15 94 46 143 69 92 43 230 122 299 172 21 15 45 28 52 28 47 0 42 105
-18 372 l-41 183 -4 280 -5 281 56 47 c39 34 64 67 86 112 28 60 30 68 19 107
-17 65 -44 112 -92 161 l-44 44 -6 174 c-8 223 -32 343 -117 599 -166 499
-388 770 -785 962 l-110 53 -220 2 c-199 3 -225 1 -275 -17z m-203 -664 c65
-54 177 -86 299 -86 88 1 137 15 188 54 19 14 43 26 53 26 24 0 134 -90 244
-200 101 -101 167 -204 234 -365 52 -126 52 -148 -2 -127 -84 33 -263 15 -357
-36 -73 -39 -138 -104 -134 -134 5 -38 39 -34 97 12 101 80 217 111 356 93 46
-5 91 -16 100 -23 8 -7 22 -37 32 -67 15 -47 15 -56 3 -63 -8 -5 -26 -6 -40
-2 -14 4 -100 6 -193 5 -189 -1 -280 -21 -339 -71 -32 -28 -36 -28 -150 -28
-91 1 -120 5 -135 17 -27 24 -72 46 -128 63 -68 20 -259 29 -376 17 -108 -10
-166 -34 -201 -81 -12 -17 -30 -30 -41 -30 -32 0 -117 52 -123 75 -8 31 21
209 46 285 52 155 115 244 216 305 103 62 201 176 271 316 19 38 38 69 43 69
5 0 21 -11 37 -24z m116 -985 c43 -12 80 -29 98 -47 27 -26 29 -32 29 -110 0
-152 -51 -239 -165 -284 -53 -21 -77 -24 -200 -24 -118 -1 -145 2 -175 18 -70
37 -94 71 -117 170 -12 52 -12 62 1 75 13 13 22 10 73 -26 107 -74 117 -78
233 -77 97 0 110 2 172 32 36 18 75 32 86 32 58 0 52 79 -11 144 -71 74 -218
105 -359 75 -63 -14 -135 -48 -162 -78 -21 -24 -42 -27 -49 -8 -13 35 38 90
104 111 71 22 356 20 442 -3z m978 8 c38 -13 59 -34 59 -61 0 -22 -21 -23 -63
-2 -112 59 -285 57 -404 -4 -93 -48 -136 -182 -59 -182 13 0 55 -15 92 -32 64
-30 77 -33 169 -33 95 0 103 2 160 34 33 19 71 42 84 52 72 56 94 -21 40 -136
-42 -89 -131 -121 -309 -112 -141 7 -232 44 -277 113 -28 44 -53 135 -53 196
0 98 30 133 139 163 60 16 376 19 422 4z m-1627 -95 c33 -18 46 -32 46 -47 0
-12 9 -69 20 -127 26 -132 54 -181 130 -224 l55 -31 155 0 c129 0 163 3 205
20 150 57 201 133 212 313 7 107 4 105 118 100 62 -3 70 -5 73 -24 2 -11 -4
-27 -13 -34 -12 -10 -15 -34 -14 -114 1 -116 15 -169 47 -174 12 -2 22 0 22 5
0 4 4 14 9 22 8 12 18 7 54 -26 24 -22 70 -51 103 -64 53 -20 76 -23 219 -23
138 -1 165 2 195 18 51 27 98 75 111 113 14 43 31 42 55 -4 10 -21 33 -59 51
-84 33 -47 41 -77 24 -94 -5 -6 -23 -51 -40 -100 -60 -182 -175 -348 -372
-540 -196 -189 -264 -229 -441 -259 -91 -16 -105 -16 -195 0 -187 31 -271 84
-483 301 -156 159 -214 237 -289 383 -55 109 -70 146 -105 265 -17 57 -36 250
-36 373 0 96 6 100 84 56z m357 -4 c18 -10 18 -13 4 -40 -11 -21 -12 -36 -5
-54 23 -62 160 -36 160 30 0 25 -15 40 -25 24 -10 -16 -40 -12 -59 9 -22 25
-14 29 59 28 39 0 73 -6 97 -18 34 -18 68 -53 68 -72 0 -4 -30 -22 -67 -38
-65 -30 -70 -30 -121 -18 -42 10 -58 10 -73 1 -10 -7 -30 -12 -44 -12 -26 0
-121 56 -145 85 -13 16 -12 19 9 34 23 15 97 48 114 50 5 1 17 -4 28 -9z m985
-14 c3 -8 1 -24 -5 -35 -15 -27 5 -71 33 -72 73 -5 97 -1 111 17 8 10 14 28
12 39 -1 16 -8 19 -31 17 -29 -3 -70 23 -60 39 10 16 157 4 199 -16 58 -29 53
-50 -24 -96 -65 -39 -108 -48 -128 -28 -8 8 -26 7 -67 -2 -55 -12 -59 -11
-119 17 -34 16 -65 33 -69 38 -12 17 4 38 50 67 50 31 89 37 98 15z"/>
<path d="M1869 2986 c-100 -34 -199 -113 -199 -160 0 -29 18 -25 68 14 79 63
133 83 237 88 143 6 222 -19 342 -109 47 -36 73 -33 73 7 0 17 -12 38 -35 59
-118 111 -327 155 -486 101z"/>
<path d="M2663 2148 c-6 -7 -13 -26 -17 -41 -18 -77 -226 -73 -226 3 0 23 -26
44 -45 36 -36 -13 3 -107 55 -133 41 -21 169 -16 208 7 40 25 73 77 70 110 -3
28 -29 38 -45 18z"/>
<path d="M2306 1778 c-91 -18 -100 -18 -117 -3 -21 20 -70 13 -90 -12 -11 -12
-10 -20 2 -41 12 -21 21 -26 43 -24 22 3 49 -10 113 -53 80 -55 88 -58 171
-67 48 -5 129 -7 180 -3 89 7 95 9 184 62 66 40 102 56 125 55 23 -1 36 4 43
18 17 33 11 50 -25 67 -34 16 -36 16 -55 -5 -14 -15 -29 -20 -43 -17 -12 2
-62 14 -110 26 -79 19 -95 20 -151 8 -49 -9 -74 -9 -109 -1 -25 7 -49 12 -54
11 -4 -1 -52 -10 -107 -21z"/>
</g>
</svg>
